<svg id="honda-ab-mobara" xmlns="http://www.w3.org/2000/svg" viewBox="0 0 266.9 30"><path d="M9.3,38.5a128.2,128.2,0,0,1,15.2-7.7V24.1a91.8,91.8,0,0,0-11.4,5.6C11.2,34.2,9.3,38.5,9.3,38.5Z" transform="translate(0 -9.5)" fill="gray"/><path d="M54.5,17.7a61.2,61.2,0,0,0-8.4.6V10.8H37.7v9l-4.6,1.3v6.5c1.6-.6,3.2-1,4.6-1.4V38.5h0a123.3,123.3,0,0,0,12.8,1c9.3,0,15.1-3.4,15.1-11.2S60.1,17.7,54.5,17.7ZM51.2,33.4a49.6,49.6,0,0,1-5.1-.3h0V24.6a32.3,32.3,0,0,1,4.9-.3c4,0,6,1.1,6,4.3S55.2,33.4,51.2,33.4Z" transform="translate(0 -9.5)" fill="gray"/><path d="M23.2,9.5C16,9.5,11.7,11.6,9.3,17S0,38.5,0,38.5H9.3s1.9-4.3,3.8-8.8,3.1-7.5,3.8-8.9c1.8-4.3,3.8-5,7.6-4.7V38.5h8.6V10.8A55,55,0,0,0,23.2,9.5Z" transform="translate(0 -9.5)" fill="#f48120"/><path d="M115.7,38.6V20.4h-.2l-6.4,18.2H99.3L92.9,20.4h-.1V38.6H85.1V11.5h13l6.6,19.2h.1l6.9-19.2h13V38.6Z" transform="translate(0 -9.5)" fill="#6d6e70"/><path d="M202.2,39.4c-1.4,0-5.6-.2-7.9-1.3a5.4,5.4,0,0,1-3.7-5,5.7,5.7,0,0,1,3.2-5.4c2.4-1.2,5.7-1.2,8.4-1.2l5.7.2v-.2c0-1.7-.8-2.5-5.8-2.5a53.9,53.9,0,0,0-8.5.7V19.2a55.4,55.4,0,0,1,9.6-.9c3.8,0,7.7.2,10,1.7s2.9,4.1,2.9,7.1V38.5S210.9,39.2,202.2,39.4Zm5.7-8a43.9,43.9,0,0,0-5.4-.3c-2.8,0-4.2.3-4.2,1.6s.8,2,3.2,2,4.6-.1,6.4-.3Z" transform="translate(0 -9.5)" fill="#6d6e70"/><path d="M253,39.4c-1.5,0-5.6-.2-8-1.3a5.5,5.5,0,0,1-3.7-5,5.8,5.8,0,0,1,3.3-5.4c2.4-1.2,5.7-1.2,8.4-1.2l5.7.2v-.2c0-1.7-.9-2.5-5.9-2.5a51.8,51.8,0,0,0-8.4.7V19.2a53.6,53.6,0,0,1,9.6-.9c3.7,0,7.6.2,9.9,1.7s3,4.1,3,7.1V38.5S261.6,39.2,253,39.4Zm5.7-8a46.8,46.8,0,0,0-5.5-.3c-2.7,0-4.1.3-4.1,1.6s.8,2,3.1,2,4.7-.1,6.5-.3Z" transform="translate(0 -9.5)" fill="#6d6e70"/><path d="M152.7,37.3c-2.5,1.6-5.8,2-10,2s-7.6-.4-10.2-2-3.8-5-3.8-8.5.9-6.7,3.8-8.5,5.9-2.1,10.2-2.1,7.5.4,10,2.1,3.9,4.9,3.9,8.4S155.7,35.4,152.7,37.3ZM142.7,24c-4,0-5.7,1.3-5.7,4.6s1.7,5,5.7,5,5.5-1.4,5.5-4.7S146.6,24,142.7,24Z" transform="translate(0 -9.5)" fill="#6d6e70"/><path d="M240.1,24.6V19a60.1,60.1,0,0,0-9.6-.6,27.9,27.9,0,0,0-9.7,2.3v18h8.3v-14C231.8,23.5,237.2,23.7,240.1,24.6Z" transform="translate(0 -9.5)" fill="#6d6e70"/><path d="M160.6,38.5s7.4.8,12.6.9c9.5.1,14.8-3.1,14.8-10.8s-5.4-10.4-10.9-10.4a51.5,51.5,0,0,0-8.4.7V10.8h-8.1Zm13.2-5.1a21.6,21.6,0,0,1-5.1-.4V24.6a28.6,28.6,0,0,1,5-.6c3.9,0,5.9,1.4,5.9,4.7S177.8,33.5,173.8,33.4Z" transform="translate(0 -9.5)" fill="#6d6e70"/></svg>