<?xml version="1.0" encoding="utf-8"?>
<!-- Generator: Adobe Illustrator 25.4.1, SVG Export Plug-In . SVG Version: 6.00 Build 0)  -->
<svg version="1.1" id="logo-grupoab" xmlns="http://www.w3.org/2000/svg" xmlns:xlink="http://www.w3.org/1999/xlink" x="0px"
	 y="0px" viewBox="0 0 197.2 48.8" style="enable-background:new 0 0 197.2 48.8;" xml:space="preserve">
<style type="text/css">
	.st0{fill:#939598;}
	.st1{fill:#F58220;}
	.st2{fill:#6D6E71;}
</style>
<g>
	<g id="ab">
		<path class="st0" d="M135,37.6c5.4-3.2,11-6.1,16.8-8.6v-7.4c-4.3,1.8-8.5,3.9-12.6,6.2L135,37.6z"/>
		<path class="st0" d="M181.3,31.9c-1.9,0-3.7-0.1-5.6-0.4l0,0v-9.3c1.8-0.2,3.6-0.4,5.4-0.4c4.4,0,6.7,1.3,6.7,4.8
			S185.8,31.9,181.3,31.9L181.3,31.9z M184.9,14.6c-3.1,0-6.1,0.2-9.2,0.6V7h-9.3v9.9l-5.1,1.4v7.2l5.1-1.5v13.6l0,0
			c4.7,0.6,9.5,1,14.2,1.1c10.2,0,16.6-3.8,16.6-12.4S191.2,14.6,184.9,14.6L184.9,14.6z"/>
		<path class="st1" d="M150.3,5.5c-7.9,0-12.6,2.3-15.3,8.3l-10.3,23.8H135l4.2-9.8c1.7-4.1,3.5-8.2,4.1-9.8
			c2.1-4.8,4.3-5.5,8.5-5.2v24.8h9.5V7C157.7,6.2,154,5.6,150.3,5.5z"/>
	</g>
	<g id="grupo">
		<path class="st2" d="M12,37.9C0.8,39.5-4.2,25.2,4.2,18.1c5.3-3.4,13-2,19.5-1.8v5.3C18,21.7,6.7,18.9,7.3,27s6.1,6.1,10.9,5.4
			v-2.3h-5.6v-4.9h12.1v11.3C20.5,37.4,16.3,37.9,12,37.9z"/>
		<path class="st2" d="M83.6,26.1c-1.6-0.1-3.3,0.1-4.9,0.5V33C86.7,36.3,91,27.7,83.6,26.1z M72.3,43.3V23.5
			c25.9-10.2,29.4,18.9,6.4,13.9v5.9H72.3z"/>
		<path class="st2" d="M107.7,26c-6-0.6-5.8,8.2,0.1,7.5S113.5,25.4,107.7,26z M115.6,36.4c-5.9,3-19.6,2.9-18.8-6.6
			c0-2.8,0.7-5.2,3-6.6c5.9-3.1,19.7-2.9,18.8,6.6C118.6,32.5,117.9,35,115.6,36.4z"/>
		<path class="st2" d="M44.4,26.6v-4.4c-2-1.2-14.9,0.2-15,1.3v14h6.4V26.7C37.9,25.7,42.1,25.9,44.4,26.6z"/>
		<path class="st2" d="M55.6,38c-9.8,0.8-7.3-9.5-7.6-15.9h6.4c0.5,7-2.7,13.1,7.2,11v-11H68v15.2C68,37.3,63,37.9,55.6,38z"/>
	</g>
</g>
</svg>
