<svg id="volkswagen-ab-abolicao" xmlns="http://www.w3.org/2000/svg" viewBox="0 0 323.5 36.7"><path d="M258.8,20.2c-2.4-1.7-6-2.1-9-2.1s-6.8.3-9.4,2.1a10.1,10.1,0,0,0-3.7,8.3c0,3.4.8,6.5,3.2,8.3s5.7,2.2,8.5,2.2a78.5,78.5,0,0,0,13-.9V32.6a77.4,77.4,0,0,1-10.7,1c-3.8,0-5.9-.2-5.9-3.1h17.4C262.2,26.3,262.3,22.7,258.8,20.2Zm-14,5.8c.3-2.4,1.4-3.1,4.8-3.1s4.5.7,4.7,3.1Z" transform="translate(0 -9.5)" fill="#6d6e70"/><path d="M105.4,37.2c-2.5,1.3-6.2,1.7-9.5,1.7s-7.6-.2-11.7-.5V31.3a94,94,0,0,0,10.4.7,35.4,35.4,0,0,0,5.5-.3c.9-.1,1.1-.4,1.1-1.2s-.4-1-1.2-1.2l-5.5-1c-7.4-1.2-10.4-3.2-10.4-8.4,0-3.5,1.3-6,4.4-7.6s5.8-1.4,8.9-1.4,7,.2,10.7.5v6.9a95.1,95.1,0,0,0-10.9-.7l-3.7.2c-.7.1-1,.4-1,1.1s.3,1,1.1,1.2l5.2.8c7.3,1.1,11,2.9,11,8.6C109.8,33.1,108.5,35.7,105.4,37.2Z" transform="translate(0 -9.5)" fill="#6d6e70"/><path d="M214.8,35.6c-3.4,2.1-7.6,2.7-13.2,2.7h-14V11.5h14c5.6,0,9.8.5,13.2,2.6s5,6.2,5,10.7S218.6,33.3,214.8,35.6ZM201.6,18h-5.2V31.7h5.2c6.7,0,9.2-1.6,9.2-6.8S208.4,18,201.6,18Z" transform="translate(0 -9.5)" fill="#6d6e70"/><path d="M124.3,39a22.6,22.6,0,0,1-7.9-1.2,5.5,5.5,0,0,1-3.6-5,5.7,5.7,0,0,1,3.2-5.3c2.3-1.2,5.6-1.2,8.3-1.2l5.6.2v-.2c0-1.7-.8-2.5-5.8-2.5a52.6,52.6,0,0,0-8.3.8V19.1a52.6,52.6,0,0,1,9.5-.9c3.7,0,7.5.2,9.8,1.7s2.9,4.1,2.9,7V38.1A108,108,0,0,1,124.3,39Zm5.6-7.9c-1.7-.1-3.3-.3-5.4-.3s-4.1.3-4.1,1.6.8,2,3.1,2,4.6-.1,6.4-.3Z" transform="translate(0 -9.5)" fill="#6d6e70"/><path d="M288.6,43.9c-2.2,1.6-6,2.3-11.9,2.3a35.3,35.3,0,0,1-9.3-1.3V39.3a28.9,28.9,0,0,0,8.1,1.2c2.8,0,5.3-.1,6.5-.8s1.3-1.5,1.3-2.7v-.4a32.6,32.6,0,0,1-8.2,1.3c-2.2,0-4.7-.3-6.6-1.9s-2.9-4.2-2.9-8a9.1,9.1,0,0,1,4.4-8.1c2.4-1.3,5.7-1.8,9.6-1.8a35.3,35.3,0,0,1,11.8,2.4V36.8C291.4,39.9,290.8,42.3,288.6,43.9Zm-5.3-19.2a12.9,12.9,0,0,0-4.5-.9c-4.2,0-5.6,1.6-5.6,4.6a4,4,0,0,0,4.2,4.2,23.3,23.3,0,0,0,5.9-.8Z" transform="translate(0 -9.5)" fill="#6d6e70"/><path d="M224.5,16.2V10.5h8.3v5.7Zm8.1,22.1h-8V18.8h8.1V38.3Z" transform="translate(0 -9.5)" fill="#6d6e70"/><path d="M161.9,38.3V27.7c0-2.8-.8-3.9-3.6-3.9a28.7,28.7,0,0,0-6.4.8V38.3h-8.1V20.5a48,48,0,0,1,14.1-2.4c4.2,0,7.9.3,9.9,2.1s2.2,3.3,2.2,6.3V38.3Z" transform="translate(0 -9.5)" fill="#6d6e70"/><path d="M319.7,37c-2.5,1.6-5.8,2-10,2s-7.4-.4-10-2-3.8-4.9-3.8-8.4.9-6.6,3.8-8.5,5.8-2,10-2,7.5.4,10,2,3.8,4.9,3.8,8.4S322.6,35.1,319.7,37Zm-10-13.2c-3.9,0-5.5,1.3-5.5,4.6s1.6,4.9,5.6,4.9,5.5-1.3,5.5-4.6S313.7,23.8,309.7,23.8Z" transform="translate(0 -9.5)" fill="#6d6e70"/><path d="M9.2,38.2a154.6,154.6,0,0,1,15-7.7V23.9a90.8,90.8,0,0,0-11.3,5.6C11.1,33.9,9.2,38.2,9.2,38.2Z" transform="translate(0 -9.5)" fill="gray"/><path d="M53.8,17.6a58.7,58.7,0,0,0-8.2.6V10.8H37.3v8.9l-4.6,1.2v6.5A47.5,47.5,0,0,1,37.3,26V38.2h0a120.3,120.3,0,0,0,12.7,1c9.1,0,14.8-3.4,14.8-11.1S59.4,17.6,53.8,17.6ZM50.6,33.1a47.2,47.2,0,0,1-5-.3h0V24.4l4.8-.3c4,0,6,1.1,6,4.2S54.6,33.1,50.6,33.1Z" transform="translate(0 -9.5)" fill="gray"/><path d="M22.9,9.5c-7.1,0-11.3,2.1-13.7,7.4L0,38.2H9.2s1.9-4.3,3.7-8.7l3.8-8.8c1.8-4.3,3.8-4.9,7.5-4.7V38.2h8.5V10.8A53.2,53.2,0,0,0,22.9,9.5Z" transform="translate(0 -9.5)" fill="#f48120"/></svg>