<svg width="60" height="60" viewBox="0 0 60 60" fill="none" xmlns="http://www.w3.org/2000/svg">
<g style="mix-blend-mode:luminosity">
<rect width="60" height="60" rx="8" fill="#838383" fill-opacity="0.2"/>
<path d="M8.74951 16.2498C8.74951 13.9201 8.74951 12.7557 9.13014 11.836C9.3815 11.2294 9.7499 10.6782 10.2143 10.214C10.6787 9.74974 11.23 9.38154 11.8367 9.13038C12.7554 8.74976 13.9198 8.74976 16.2495 8.74976H19.3751C21.7048 8.74976 22.8692 8.74976 23.788 9.13038C24.3947 9.38154 24.946 9.74974 25.4104 10.214C25.8747 10.6782 26.2431 11.2294 26.4945 11.836C26.8751 12.7548 26.8751 13.9201 26.8751 16.2498V19.3744C26.8751 21.7041 26.8751 22.8694 26.4945 23.7882C25.9868 25.0133 25.0132 25.9865 23.788 26.4938C22.8692 26.8744 21.7048 26.8744 19.3751 26.8744H16.2495C13.9198 26.8744 12.7554 26.8744 11.8367 26.4938C11.23 26.2427 10.6787 25.8745 10.2143 25.4102C9.7499 24.946 9.3815 24.3948 9.13014 23.7882C8.74951 22.8694 8.74951 21.7041 8.74951 19.3744V16.2498Z" fill="#2B3151"/>
<path fill-rule="evenodd" clip-rule="evenodd" d="M16.2056 7.5H19.4194C20.5463 7.5 21.4556 7.5 22.1963 7.55062C22.9566 7.60219 23.6297 7.71187 24.2672 7.97531C25.7983 8.60988 27.0146 9.82657 27.6488 11.3578C27.9131 11.9953 28.0228 12.6684 28.0744 13.4297C28.125 14.1694 28.125 15.0787 28.125 16.2056V19.4194C28.125 20.5463 28.125 21.4556 28.0744 22.1963C28.0228 22.9566 27.9131 23.6297 27.6488 24.2672C27.0145 25.7981 25.7981 27.0145 24.2672 27.6488C23.6297 27.9131 22.9566 28.0228 22.1953 28.0744C21.4556 28.125 20.5463 28.125 19.4194 28.125H16.2056C15.0787 28.125 14.1694 28.125 13.4288 28.0744C12.6684 28.0228 11.9953 27.9131 11.3578 27.6488C9.82657 27.0146 8.60988 25.7983 7.97531 24.2672C7.71187 23.6297 7.60219 22.9566 7.55062 22.1953C7.5 21.4566 7.5 20.5472 7.5 19.4203V16.2066C7.5 15.0797 7.5 14.1703 7.55062 13.4297C7.60219 12.6694 7.71187 11.9963 7.97531 11.3588C8.60968 9.82733 9.82639 8.61062 11.3578 7.97625C11.9953 7.71281 12.6684 7.60313 13.4297 7.55156C14.1684 7.5 15.0787 7.5 16.2056 7.5ZM13.5994 10.0444C12.9656 10.0875 12.5962 10.1691 12.315 10.2853C11.86 10.4738 11.4465 10.75 11.0983 11.0983C10.75 11.4465 10.4738 11.86 10.2853 12.315C10.1691 12.5962 10.0884 12.9656 10.0444 13.5994C10.0003 14.2444 10.0003 15.0684 10.0003 16.2497V19.3753C10.0003 20.5566 10.0003 21.3816 10.0444 22.0256C10.0875 22.6594 10.1691 23.0288 10.2853 23.31C10.4738 23.765 10.75 24.1785 11.0983 24.5267C11.4465 24.875 11.86 25.1512 12.315 25.3397C12.5962 25.4559 12.9656 25.5366 13.5994 25.5806C14.2444 25.6247 15.0684 25.6247 16.2497 25.6247H19.3753C20.5566 25.6247 21.3816 25.6247 22.0256 25.5806C22.6594 25.5375 23.0288 25.4559 23.31 25.3397C23.765 25.1512 24.1785 24.875 24.5267 24.5267C24.875 24.1785 25.1512 23.765 25.3397 23.31C25.4559 23.0288 25.5366 22.6594 25.5806 22.0256C25.6247 21.3806 25.6247 20.5566 25.6247 19.3753V16.2497C25.6247 15.0684 25.6247 14.2434 25.5806 13.5994C25.5375 12.9656 25.4559 12.5962 25.3397 12.315C25.1512 11.86 24.875 11.4465 24.5267 11.0983C24.1785 10.75 23.765 10.4738 23.31 10.2853C23.0288 10.1691 22.6594 10.0884 22.0256 10.0444C21.3806 10.0003 20.5566 10.0003 19.3753 10.0003H16.2497C15.0684 10.0003 14.2434 10.0003 13.5994 10.0444Z" fill="#2B3151"/>
<path d="M8.74951 40.6248C8.74951 38.2951 8.74951 37.1307 9.13014 36.211C9.3815 35.6044 9.7499 35.0532 10.2143 34.589C10.6787 34.1247 11.23 33.7565 11.8367 33.5054C12.7554 33.1248 13.9198 33.1248 16.2495 33.1248H19.3751C21.7048 33.1248 22.8692 33.1248 23.788 33.5054C24.3947 33.7565 24.946 34.1247 25.4104 34.589C25.8747 35.0532 26.2431 35.6044 26.4945 36.211C26.8751 37.1298 26.8751 38.2951 26.8751 40.6248V43.7494C26.8751 46.0791 26.8751 47.2444 26.4945 48.1632C25.9868 49.3883 25.0132 50.3615 23.788 50.8688C22.8692 51.2494 21.7048 51.2494 19.3751 51.2494H16.2495C13.9198 51.2494 12.7554 51.2494 11.8367 50.8688C11.23 50.6177 10.6787 50.2495 10.2143 49.7852C9.7499 49.321 9.3815 48.7698 9.13014 48.1632C8.74951 47.2444 8.74951 46.0791 8.74951 43.7494V40.6248Z" fill="#D0D2E0"/>
<path fill-rule="evenodd" clip-rule="evenodd" d="M16.2056 31.875H19.4194C20.5463 31.875 21.4556 31.875 22.1963 31.9256C22.9566 31.9772 23.6297 32.0869 24.2672 32.3503C25.7983 32.9848 27.0147 34.2015 27.6488 35.7328C27.9131 36.3703 28.0228 37.0434 28.0744 37.8047C28.125 38.5444 28.125 39.4537 28.125 40.5806V43.7944C28.125 44.9213 28.125 45.8306 28.0744 46.5712C28.0228 47.3316 27.9131 48.0047 27.6488 48.6422C27.0147 50.1735 25.7983 51.3902 24.2672 52.0247C23.6297 52.2881 22.9566 52.3978 22.1953 52.4494C21.4556 52.5 20.5463 52.5 19.4194 52.5H16.2056C15.0787 52.5 14.1694 52.5 13.4288 52.4494C12.6684 52.3978 11.9953 52.2881 11.3578 52.0247C9.82639 51.3903 8.60968 50.1736 7.97531 48.6422C7.71187 48.0047 7.60219 47.3316 7.55062 46.5703C7.5 45.8316 7.5 44.9222 7.5 43.7953V40.5816C7.5 39.4547 7.5 38.5453 7.55062 37.8047C7.60219 37.0444 7.71187 36.3713 7.97531 35.7338C8.60968 34.2023 9.82639 32.9856 11.3578 32.3512C11.9953 32.0878 12.6684 31.9781 13.4297 31.9266C14.1684 31.875 15.0787 31.875 16.2056 31.875ZM13.5994 34.4194C12.9656 34.4625 12.5962 34.5441 12.315 34.6603C11.86 34.8488 11.4465 35.125 11.0983 35.4733C10.75 35.8215 10.4738 36.235 10.2853 36.69C10.1691 36.9713 10.0884 37.3406 10.0444 37.9744C10.0003 38.6194 10.0003 39.4434 10.0003 40.6247V43.7503C10.0003 44.9316 10.0003 45.7566 10.0444 46.4006C10.0875 47.0344 10.1691 47.4037 10.2853 47.685C10.4738 48.14 10.75 48.5535 11.0983 48.9017C11.4465 49.25 11.86 49.5262 12.315 49.7147C12.5962 49.8309 12.9656 49.9116 13.5994 49.9556C14.2444 49.9997 15.0684 49.9997 16.2497 49.9997H19.3753C20.5566 49.9997 21.3816 49.9997 22.0256 49.9556C22.6594 49.9125 23.0288 49.8309 23.31 49.7147C23.765 49.5262 24.1785 49.25 24.5267 48.9017C24.875 48.5535 25.1512 48.14 25.3397 47.685C25.4559 47.4037 25.5366 47.0344 25.5806 46.4006C25.6247 45.7556 25.6247 44.9316 25.6247 43.7503V40.6247C25.6247 39.4434 25.6247 38.6184 25.5806 37.9744C25.5375 37.3406 25.4559 36.9713 25.3397 36.69C25.1512 36.235 24.875 35.8215 24.5267 35.4733C24.1785 35.125 23.765 34.8488 23.31 34.6603C23.0288 34.5441 22.6594 34.4634 22.0256 34.4194C21.3806 34.3753 20.5566 34.3753 19.3753 34.3753H16.2497C15.0684 34.3753 14.2434 34.3753 13.5994 34.4194Z" fill="#D0D2E0"/>
<path d="M33.1245 16.2498C33.1245 13.9201 33.1245 12.7557 33.5051 11.836C33.7565 11.2294 34.1249 10.6782 34.5893 10.214C35.0537 9.74974 35.605 9.38154 36.2117 9.13038C37.1304 8.74976 38.2948 8.74976 40.6245 8.74976H43.7501C46.0798 8.74976 47.2442 8.74976 48.163 9.13038C48.7697 9.38154 49.321 9.74974 49.7854 10.214C50.2498 10.6782 50.6181 11.2294 50.8695 11.836C51.2501 12.7548 51.2501 13.9201 51.2501 16.2498V19.3744C51.2501 21.7041 51.2501 22.8694 50.8695 23.7882C50.3618 25.0133 49.3882 25.9865 48.163 26.4938C47.2442 26.8744 46.0798 26.8744 43.7501 26.8744H40.6245C38.2948 26.8744 37.1304 26.8744 36.2117 26.4938C34.9864 25.9865 34.0129 25.0133 33.5051 23.7882C33.1245 22.8694 33.1245 21.7041 33.1245 19.3744V16.2498Z" fill="#D0D2E0"/>
<path fill-rule="evenodd" clip-rule="evenodd" d="M40.5806 7.5H43.7944C44.9213 7.5 45.8306 7.5 46.5712 7.55062C47.3316 7.60219 48.0047 7.71187 48.6422 7.97531C50.1736 8.60968 51.3903 9.82639 52.0247 11.3578C52.2881 11.9953 52.3978 12.6684 52.4494 13.4297C52.5 14.1694 52.5 15.0787 52.5 16.2056V19.4194C52.5 20.5463 52.5 21.4556 52.4494 22.1963C52.3978 22.9566 52.2881 23.6297 52.0247 24.2672C51.3902 25.7983 50.1735 27.0147 48.6422 27.6488C48.0047 27.9131 47.3316 28.0228 46.5703 28.0744C45.8306 28.125 44.9213 28.125 43.7944 28.125H40.5806C39.4537 28.125 38.5444 28.125 37.8038 28.0744C37.0434 28.0228 36.3703 27.9131 35.7328 27.6488C34.2015 27.0147 32.9848 25.7983 32.3503 24.2672C32.0869 23.6297 31.9772 22.9566 31.9256 22.1953C31.875 21.4566 31.875 20.5472 31.875 19.4203V16.2066C31.875 15.0797 31.875 14.1703 31.9256 13.4297C31.9772 12.6694 32.0869 11.9963 32.3503 11.3588C32.9847 9.82733 34.2014 8.61062 35.7328 7.97625C36.3703 7.71281 37.0434 7.60313 37.8047 7.55156C38.5434 7.5 39.4537 7.5 40.5806 7.5ZM37.9744 10.0444C37.3406 10.0875 36.9713 10.1691 36.69 10.2853C36.235 10.4738 35.8215 10.75 35.4733 11.0983C35.125 11.4465 34.8488 11.86 34.6603 12.315C34.5441 12.5962 34.4634 12.9656 34.4194 13.5994C34.3753 14.2444 34.3753 15.0684 34.3753 16.2497V19.3753C34.3753 20.5566 34.3753 21.3816 34.4194 22.0256C34.4625 22.6594 34.5441 23.0288 34.6603 23.31C34.8488 23.765 35.125 24.1785 35.4733 24.5267C35.8215 24.875 36.235 25.1512 36.69 25.3397C36.9713 25.4559 37.3406 25.5366 37.9744 25.5806C38.6194 25.6247 39.4434 25.6247 40.6247 25.6247H43.7503C44.9316 25.6247 45.7566 25.6247 46.4006 25.5806C47.0344 25.5375 47.4037 25.4559 47.685 25.3397C48.14 25.1512 48.5535 24.875 48.9017 24.5267C49.25 24.1785 49.5262 23.765 49.7147 23.31C49.8309 23.0288 49.9116 22.6594 49.9556 22.0256C49.9997 21.3806 49.9997 20.5566 49.9997 19.3753V16.2497C49.9997 15.0684 49.9997 14.2434 49.9556 13.5994C49.9125 12.9656 49.8309 12.5962 49.7147 12.315C49.5262 11.86 49.25 11.4465 48.9017 11.0983C48.5535 10.75 48.14 10.4738 47.685 10.2853C47.4037 10.1691 47.0344 10.0884 46.4006 10.0444C45.7556 10.0003 44.9316 10.0003 43.7503 10.0003H40.6247C39.4434 10.0003 38.6184 10.0003 37.9744 10.0444Z" fill="#D0D2E0"/>
<path d="M33.1245 40.6248C33.1245 38.2951 33.1245 37.1307 33.5051 36.211C33.7565 35.6044 34.1249 35.0532 34.5893 34.589C35.0537 34.1247 35.605 33.7565 36.2117 33.5054C37.1304 33.1248 38.2948 33.1248 40.6245 33.1248H43.7501C46.0798 33.1248 47.2442 33.1248 48.163 33.5054C48.7697 33.7565 49.321 34.1247 49.7854 34.589C50.2498 35.0532 50.6181 35.6044 50.8695 36.211C51.2501 37.1298 51.2501 38.2951 51.2501 40.6248V43.7494C51.2501 46.0791 51.2501 47.2444 50.8695 48.1632C50.3618 49.3883 49.3882 50.3615 48.163 50.8688C47.2442 51.2494 46.0798 51.2494 43.7501 51.2494H40.6245C38.2948 51.2494 37.1304 51.2494 36.2117 50.8688C34.9864 50.3615 34.0129 49.3883 33.5051 48.1632C33.1245 47.2444 33.1245 46.0791 33.1245 43.7494V40.6248Z" fill="#2B3151"/>
<path fill-rule="evenodd" clip-rule="evenodd" d="M40.5806 31.875H43.7944C44.9213 31.875 45.8306 31.875 46.5712 31.9256C47.3316 31.9772 48.0047 32.0869 48.6422 32.3503C49.4005 32.6644 50.0895 33.1247 50.6699 33.7051C51.2503 34.2855 51.7106 34.9745 52.0247 35.7328C52.2881 36.3703 52.3978 37.0434 52.4494 37.8047C52.5 38.5444 52.5 39.4537 52.5 40.5806V43.7944C52.5 44.9213 52.5 45.8306 52.4494 46.5712C52.3978 47.3316 52.2881 48.0047 52.0247 48.6422C51.7106 49.4005 51.2503 50.0895 50.6699 50.6699C50.0895 51.2503 49.4005 51.7106 48.6422 52.0247C48.0047 52.2881 47.3316 52.3978 46.5703 52.4494C45.8306 52.5 44.9213 52.5 43.7944 52.5H40.5806C39.4537 52.5 38.5444 52.5 37.8038 52.4494C37.0434 52.3978 36.3703 52.2881 35.7328 52.0247C34.9745 51.7106 34.2855 51.2503 33.7051 50.6699C33.1247 50.0895 32.6644 49.4005 32.3503 48.6422C32.0869 48.0047 31.9772 47.3316 31.9256 46.5703C31.875 45.8316 31.875 44.9222 31.875 43.7953V40.5816C31.875 39.4547 31.875 38.5453 31.9256 37.8047C31.9772 37.0444 32.0869 36.3713 32.3503 35.7338C32.6644 34.9754 33.1247 34.2864 33.7051 33.7061C34.2855 33.1257 34.9745 32.6653 35.7328 32.3512C36.3703 32.0878 37.0434 31.9781 37.8047 31.9266C38.5434 31.875 39.4537 31.875 40.5806 31.875ZM37.9744 34.4194C37.3406 34.4625 36.9713 34.5441 36.69 34.6603C36.235 34.8488 35.8215 35.125 35.4733 35.4733C35.125 35.8215 34.8488 36.235 34.6603 36.69C34.5441 36.9713 34.4634 37.3406 34.4194 37.9744C34.3753 38.6194 34.3753 39.4434 34.3753 40.6247V43.7503C34.3753 44.9316 34.3753 45.7566 34.4194 46.4006C34.4625 47.0344 34.5441 47.4037 34.6603 47.685C34.8488 48.14 35.125 48.5535 35.4733 48.9017C35.8215 49.25 36.235 49.5262 36.69 49.7147C36.9713 49.8309 37.3406 49.9116 37.9744 49.9556C38.6194 49.9997 39.4434 49.9997 40.6247 49.9997H43.7503C44.9316 49.9997 45.7566 49.9997 46.4006 49.9556C47.0344 49.9125 47.4037 49.8309 47.685 49.7147C48.14 49.5262 48.5535 49.25 48.9017 48.9017C49.25 48.5535 49.5262 48.14 49.7147 47.685C49.8309 47.4037 49.9116 47.0344 49.9556 46.4006C49.9997 45.7556 49.9997 44.9316 49.9997 43.7503V40.6247C49.9997 39.4434 49.9997 38.6184 49.9556 37.9744C49.9125 37.3406 49.8309 36.9713 49.7147 36.69C49.5262 36.235 49.25 35.8215 48.9017 35.4733C48.5535 35.125 48.14 34.8488 47.685 34.6603C47.4037 34.5441 47.0344 34.4634 46.4006 34.4194C45.7556 34.3753 44.9316 34.3753 43.7503 34.3753H40.6247C39.4434 34.3753 38.6184 34.3753 37.9744 34.4194Z" fill="#2B3151"/>
</g>
</svg>
