<svg width="183" height="40" viewBox="0 0 183 40" fill="none" xmlns="http://www.w3.org/2000/svg">
<path d="M13.5664 9.53674e-05V8.52848H27.3923C33.4704 8.52848 38.4148 13.6692 38.4148 19.9875C38.4148 26.3058 33.4704 31.4462 27.3923 31.4462H19.8868V39.9746H27.3923C37.9939 39.9746 46.6185 31.0083 46.6185 19.9875C46.6185 8.96641 37.9939 9.53674e-05 27.3923 9.53674e-05H13.5664Z" fill="url(#paint0_linear_9_5816)"/>
<path d="M8.72656 31.4443H19.8862V19.8434H8.72656V31.4443Z" fill="url(#paint1_linear_9_5816)"/>
<path d="M8.72656 31.4443H19.8862V19.8434H8.72656V31.4443Z" fill="url(#paint2_linear_9_5816)"/>
<path d="M2.40723 17.2661H8.66806V10.7572H2.40723V17.2661Z" fill="url(#paint3_linear_9_5816)"/>
<path d="M2.40723 17.2661H8.66806V10.7572H2.40723V17.2661Z" fill="url(#paint4_linear_9_5816)"/>
<path d="M0 33.417H4.76436V28.4637H0V33.417Z" fill="url(#paint5_linear_9_5816)"/>
<path d="M0 33.417H4.76436V28.4637H0V33.417Z" fill="url(#paint6_linear_9_5816)"/>
<path d="M61.0303 26.4036V10.6012H67.0404C67.9629 10.6012 68.7409 10.7801 69.3742 11.138C70.0076 11.4815 70.517 11.9896 70.9026 12.6624C71.3019 13.3351 71.591 14.1653 71.77 15.153C71.949 16.1263 72.0385 17.2428 72.0385 18.5024C72.0385 20.1628 71.8526 21.5799 71.4809 22.7536C71.1091 23.9273 70.5515 24.8291 69.8079 25.4589C69.0644 26.0887 68.1419 26.4036 67.0404 26.4036H61.0303ZM62.6825 24.8792H66.9165C67.7288 24.8792 68.3897 24.6216 68.8992 24.1063C69.4086 23.5766 69.7873 22.8395 70.0351 21.8948C70.283 20.9358 70.4069 19.805 70.4069 18.5024C70.4069 17.3287 70.338 16.341 70.2004 15.5395C70.0627 14.7236 69.8492 14.0651 69.5601 13.5641C69.2847 13.0632 68.9267 12.7053 68.4861 12.4906C68.0455 12.2616 67.5223 12.1471 66.9165 12.1471H62.6825V24.8792Z" fill="white"/>
<path d="M78.8372 26.5324C77.6806 26.5324 76.7649 26.3535 76.0903 25.9957C75.4294 25.6378 74.9543 25.0295 74.6652 24.1707C74.376 23.3118 74.2315 22.1381 74.2315 20.6495C74.2315 19.1322 74.376 17.9513 74.6652 17.1068C74.9681 16.248 75.4569 15.6468 76.1316 15.3033C76.8063 14.9597 77.715 14.788 78.8578 14.788C79.8354 14.788 80.6271 14.9025 81.2329 15.1315C81.8525 15.3605 82.3069 15.7542 82.5961 16.3124C82.899 16.8563 83.0504 17.615 83.0504 18.5883C83.0504 19.261 82.9196 19.805 82.658 20.2201C82.4102 20.6208 82.0453 20.9143 81.5634 21.1004C81.0953 21.2721 80.5376 21.358 79.8905 21.358H75.8631C75.8769 22.2884 75.9732 23.0399 76.1522 23.6124C76.3312 24.1707 76.6548 24.5786 77.1229 24.8363C77.6048 25.0796 78.3071 25.2013 79.2296 25.2013H82.7819V26.2319C82.1486 26.3177 81.529 26.3893 80.9231 26.4466C80.3173 26.5038 79.622 26.5324 78.8372 26.5324ZM75.8424 20.2415H79.7666C80.3862 20.2415 80.8405 20.127 81.1297 19.898C81.4326 19.6547 81.5841 19.2253 81.5841 18.6098C81.5841 17.9513 81.4877 17.4432 81.2949 17.0853C81.1159 16.7132 80.8268 16.4555 80.4275 16.3124C80.0419 16.1549 79.5187 16.0762 78.8578 16.0762C78.0868 16.0762 77.4809 16.1979 77.0403 16.4412C76.5997 16.6702 76.2899 17.0853 76.1109 17.6865C75.9319 18.2877 75.8424 19.1394 75.8424 20.2415Z" fill="white"/>
<path d="M87.9456 26.5324C87.1332 26.5324 86.4654 26.2819 85.9422 25.781C85.419 25.28 85.1574 24.5715 85.1574 23.6554V22.8395C85.1574 21.9377 85.4397 21.2077 86.0042 20.6495C86.5825 20.0912 87.4499 19.8121 88.6065 19.8121H92.3448V18.3951C92.3448 17.9227 92.2622 17.5219 92.0969 17.1927C91.9455 16.8492 91.6632 16.5844 91.2501 16.3983C90.8508 16.2122 90.2657 16.1192 89.4946 16.1192H86.0662V15.11C86.5481 15.0242 87.1057 14.9454 87.7391 14.8739C88.3862 14.8023 89.1435 14.7665 90.0109 14.7665C90.9059 14.7522 91.6494 14.8667 92.2415 15.11C92.8336 15.3534 93.2673 15.7398 93.5427 16.2695C93.8318 16.7848 93.9764 17.4647 93.9764 18.3092V26.4036H92.7165L92.4067 25.0939C92.3516 25.1512 92.1795 25.2514 91.8904 25.3945C91.615 25.5376 91.257 25.7022 90.8164 25.8883C90.3896 26.0601 89.9214 26.2104 89.412 26.3392C88.9163 26.468 88.4275 26.5324 87.9456 26.5324ZM88.6272 25.2657C88.875 25.28 89.1573 25.2514 89.474 25.1798C89.7906 25.1082 90.1142 25.0295 90.4447 24.9436C90.7751 24.8434 91.078 24.7432 91.3534 24.643C91.6426 24.5428 91.8766 24.4569 92.0556 24.3854C92.2346 24.3138 92.331 24.278 92.3448 24.278V20.6709L88.9783 20.8212C88.1934 20.8499 87.6289 21.0503 87.2847 21.4224C86.9542 21.7946 86.789 22.2741 86.789 22.861V23.3763C86.789 23.8343 86.8785 24.2065 87.0575 24.4927C87.2503 24.7647 87.4843 24.9579 87.7597 25.0724C88.0489 25.1869 88.338 25.2514 88.6272 25.2657Z" fill="white"/>
<path d="M99.9436 26.4251C99.3102 26.4251 98.7801 26.3106 98.3533 26.0816C97.9264 25.8382 97.6029 25.4518 97.3826 24.9221C97.1623 24.3782 97.0521 23.6482 97.0521 22.7321V10.0215H98.6837V22.5174C98.6837 23.2045 98.7457 23.7269 98.8696 24.0848C98.9935 24.4283 99.1725 24.6716 99.4066 24.8148C99.6407 24.9436 99.916 25.0295 100.233 25.0724L101.348 25.2013V26.4251H99.9436Z" fill="white"/>
<path d="M107.336 26.5324C106.18 26.5324 105.264 26.3535 104.589 25.9957C103.929 25.6378 103.454 25.0295 103.164 24.1707C102.875 23.3118 102.731 22.1381 102.731 20.6495C102.731 19.1322 102.875 17.9513 103.164 17.1068C103.467 16.248 103.956 15.6468 104.631 15.3033C105.305 14.9597 106.214 14.788 107.357 14.788C108.335 14.788 109.126 14.9025 109.732 15.1315C110.352 15.3605 110.806 15.7542 111.095 16.3124C111.398 16.8563 111.55 17.615 111.55 18.5883C111.55 19.261 111.419 19.805 111.157 20.2201C110.909 20.6208 110.544 20.9143 110.063 21.1004C109.594 21.2721 109.037 21.358 108.39 21.358H104.362C104.376 22.2884 104.472 23.0399 104.651 23.6124C104.83 24.1707 105.154 24.5786 105.622 24.8363C106.104 25.0796 106.806 25.2013 107.729 25.2013H111.281V26.2319C110.648 26.3177 110.028 26.3893 109.422 26.4466C108.816 26.5038 108.121 26.5324 107.336 26.5324ZM104.342 20.2415H108.266C108.885 20.2415 109.34 20.127 109.629 19.898C109.932 19.6547 110.083 19.2253 110.083 18.6098C110.083 17.9513 109.987 17.4432 109.794 17.0853C109.615 16.7132 109.326 16.4555 108.927 16.3124C108.541 16.1549 108.018 16.0762 107.357 16.0762C106.586 16.0762 105.98 16.1979 105.54 16.4412C105.099 16.6702 104.789 17.0853 104.61 17.6865C104.431 18.2877 104.342 19.1394 104.342 20.2415Z" fill="white"/>
<path d="M114.297 26.4036V14.9383H115.536L115.928 16.935C116.424 16.3196 116.975 15.8114 117.581 15.4106C118.2 15.0098 118.909 14.8094 119.708 14.8094C119.901 14.8094 120.08 14.8166 120.245 14.8309C120.424 14.8452 120.589 14.8739 120.741 14.9168V16.6559C120.562 16.6273 120.369 16.6058 120.162 16.5915C119.956 16.5629 119.749 16.5486 119.543 16.5486C119.033 16.5486 118.579 16.613 118.18 16.7418C117.78 16.8706 117.402 17.0639 117.044 17.3215C116.686 17.5792 116.314 17.8941 115.928 18.2662V26.4036H114.297Z" fill="white"/>
<path d="M126.027 26.5111C125.696 26.5111 125.318 26.4753 124.891 26.4037C124.464 26.3465 124.051 26.2033 123.652 25.9743C123.266 25.7453 122.942 25.4018 122.681 24.9437C122.433 24.4714 122.309 23.8272 122.309 23.0114V14.144C122.309 13.4426 122.412 12.8557 122.619 12.3834C122.825 11.911 123.101 11.5389 123.445 11.2669C123.789 10.9949 124.168 10.8017 124.581 10.6872C124.994 10.5727 125.4 10.5154 125.799 10.5154C126.832 10.5154 127.741 10.5297 128.526 10.5584C129.324 10.587 130.04 10.6228 130.674 10.6657C131.307 10.6943 131.885 10.7373 132.409 10.7945V13.4569H126.708C126.281 13.4569 125.951 13.5643 125.717 13.779C125.483 13.9937 125.366 14.3229 125.366 14.7666V17.064L131.417 17.2357V19.7478L125.366 19.9196V22.1096C125.366 22.4818 125.421 22.7752 125.531 22.9899C125.655 23.1903 125.813 23.3334 126.006 23.4193C126.213 23.4909 126.426 23.5267 126.646 23.5267H132.409V26.189C131.803 26.2606 131.128 26.3178 130.385 26.3608C129.655 26.4037 128.911 26.4395 128.154 26.4681C127.41 26.4968 126.701 26.5111 126.027 26.5111Z" fill="white"/>
<path d="M141.159 31.4923V25.3087C140.773 25.6379 140.312 25.9242 139.775 26.1676C139.238 26.4109 138.715 26.5326 138.206 26.5326C137.2 26.5326 136.395 26.325 135.789 25.9099C135.197 25.4805 134.777 24.8364 134.529 23.9775C134.281 23.1044 134.157 21.9951 134.157 20.6496C134.157 19.1753 134.309 18.0015 134.612 17.1284C134.915 16.2553 135.376 15.6326 135.996 15.2604C136.629 14.8883 137.428 14.7022 138.391 14.7022C139.052 14.7022 139.741 14.7237 140.457 14.7666C141.173 14.8096 141.854 14.8668 142.501 14.9384C143.162 15.01 143.741 15.0815 144.236 15.1531V31.4923H141.159ZM139.094 23.9775C139.424 23.9775 139.782 23.9131 140.168 23.7843C140.567 23.6555 140.897 23.5052 141.159 23.3334V17.0855H139.321C138.798 17.0855 138.378 17.2143 138.061 17.4719C137.758 17.7153 137.538 18.0946 137.4 18.6099C137.276 19.1109 137.214 19.755 137.214 20.5422C137.214 21.4583 137.276 22.1668 137.4 22.6678C137.524 23.1545 137.724 23.498 137.999 23.6984C138.274 23.8845 138.639 23.9775 139.094 23.9775Z" fill="white"/>
<path d="M149.668 26.5326C148.677 26.5326 147.899 26.232 147.334 25.6308C146.77 25.0153 146.488 24.1493 146.488 23.0328V14.874H149.544V22.0881C149.544 22.7322 149.689 23.1688 149.978 23.3978C150.281 23.6125 150.673 23.7199 151.155 23.7199C151.541 23.7199 151.933 23.6483 152.333 23.5052C152.746 23.3477 153.111 23.1402 153.427 22.8825V14.874H156.505V26.4037H153.964L153.427 25.2228C152.932 25.5664 152.36 25.8741 151.713 26.1461C151.066 26.4037 150.384 26.5326 149.668 26.5326Z" fill="white"/>
<path d="M159.184 13.1778C158.895 13.1778 158.75 13.0346 158.75 12.7484V10.6442C158.75 10.3437 158.895 10.1934 159.184 10.1934H161.538C161.662 10.1934 161.759 10.2363 161.827 10.3222C161.896 10.4081 161.931 10.5154 161.931 10.6442V12.7484C161.931 13.0346 161.8 13.1778 161.538 13.1778H159.184ZM158.812 26.4037V14.874H161.869V26.4037H158.812Z" fill="white"/>
<path d="M168.431 26.4037C167.577 26.4037 166.882 26.2749 166.345 26.0173C165.822 25.7596 165.443 25.3302 165.209 24.729C164.975 24.1278 164.871 23.3191 164.899 22.3028L165.002 17.429H163.267V15.3893L165.106 14.874L165.519 11.6534H167.935V14.874H170.537V17.429H167.935V22.2814C167.935 22.5963 167.963 22.8539 168.018 23.0543C168.073 23.2547 168.148 23.4193 168.245 23.5481C168.355 23.6626 168.479 23.7485 168.617 23.8058C168.754 23.863 168.892 23.8988 169.03 23.9131L170.434 24.042V26.4037H168.431Z" fill="white"/>
<path d="M175.715 31.4923L176.912 26.4037C176.293 26.4037 175.749 26.2821 175.281 26.0387C174.813 25.7954 174.42 25.4519 174.104 25.0081C173.801 24.5501 173.567 23.9847 173.401 23.312L171.315 14.874H174.496L176.252 22.6678C176.32 22.9398 176.41 23.1545 176.52 23.312C176.63 23.4694 176.747 23.5839 176.871 23.6555C176.995 23.7127 177.105 23.7557 177.202 23.7843C177.312 23.7986 177.394 23.8058 177.449 23.8058L179.453 14.874H182.551L179.246 29.3667L178.255 31.4923H175.715Z" fill="white"/>
<path d="M147.55 34.8327C147.643 34.977 147.749 35.111 147.868 35.2347C147.987 35.3583 148.122 35.458 148.274 35.5336C148.433 35.6023 148.605 35.6366 148.79 35.6366C149.015 35.6366 149.19 35.5851 149.315 35.482C149.447 35.3721 149.514 35.2243 149.514 35.0388C149.514 34.8739 149.461 34.7365 149.355 34.6265C149.256 34.5097 149.127 34.4135 148.968 34.3379C148.81 34.2555 148.641 34.1799 148.463 34.1112C148.264 34.0287 148.063 33.9325 147.858 33.8226C147.659 33.7058 147.491 33.558 147.352 33.3794C147.22 33.1938 147.154 32.9636 147.154 32.6888C147.154 32.407 147.223 32.1734 147.362 31.9879C147.507 31.8023 147.693 31.6649 147.917 31.5756C148.149 31.4863 148.387 31.4416 148.631 31.4416C148.876 31.4416 149.104 31.4828 149.315 31.5653C149.533 31.6477 149.725 31.7577 149.89 31.8951C150.056 32.0325 150.184 32.1906 150.277 32.3692L149.642 32.7918C149.517 32.6132 149.358 32.4654 149.167 32.3486C148.981 32.2318 148.77 32.1734 148.532 32.1734C148.367 32.1734 148.225 32.2112 148.106 32.2868C147.987 32.3624 147.927 32.4792 147.927 32.6372C147.927 32.7609 147.973 32.8709 148.066 32.9671C148.159 33.0633 148.278 33.1492 148.423 33.2247C148.568 33.3003 148.72 33.3725 148.879 33.4412C149.143 33.5511 149.385 33.6714 149.603 33.802C149.821 33.9256 149.993 34.0768 150.118 34.2555C150.251 34.4341 150.317 34.6643 150.317 34.9461C150.317 35.3583 150.171 35.7019 149.88 35.9768C149.596 36.2516 149.219 36.3891 148.75 36.3891C148.446 36.3891 148.172 36.3341 147.927 36.2242C147.683 36.1073 147.474 35.9596 147.303 35.7809C147.137 35.6023 147.012 35.4202 146.926 35.2347L147.55 34.8327Z" fill="white"/>
<path d="M154.931 31.5447L151.957 38.5536H151.065L152.314 35.616L150.569 31.5447H151.511L152.958 35.2553L152.631 35.214L154.039 31.5447H154.931Z" fill="white"/>
<path d="M155.868 34.8327C155.96 34.977 156.066 35.111 156.185 35.2347C156.304 35.3583 156.439 35.458 156.591 35.5336C156.75 35.6023 156.922 35.6366 157.107 35.6366C157.332 35.6366 157.507 35.5851 157.633 35.482C157.765 35.3721 157.831 35.2243 157.831 35.0388C157.831 34.8739 157.778 34.7365 157.672 34.6265C157.573 34.5097 157.444 34.4135 157.285 34.3379C157.127 34.2555 156.958 34.1799 156.78 34.1112C156.582 34.0287 156.38 33.9325 156.175 33.8226C155.977 33.7058 155.808 33.558 155.669 33.3794C155.537 33.1938 155.471 32.9636 155.471 32.6888C155.471 32.407 155.54 32.1734 155.679 31.9879C155.825 31.8023 156.01 31.6649 156.235 31.5756C156.466 31.4863 156.704 31.4416 156.948 31.4416C157.193 31.4416 157.421 31.4828 157.633 31.5653C157.851 31.6477 158.042 31.7577 158.208 31.8951C158.373 32.0325 158.502 32.1906 158.594 32.3692L157.96 32.7918C157.834 32.6132 157.675 32.4654 157.484 32.3486C157.299 32.2318 157.087 32.1734 156.849 32.1734C156.684 32.1734 156.542 32.2112 156.423 32.2868C156.304 32.3624 156.244 32.4792 156.244 32.6372C156.244 32.7609 156.291 32.8709 156.383 32.9671C156.476 33.0633 156.595 33.1492 156.74 33.2247C156.886 33.3003 157.038 33.3725 157.196 33.4412C157.461 33.5511 157.702 33.6714 157.92 33.802C158.138 33.9256 158.31 34.0768 158.436 34.2555C158.568 34.4341 158.634 34.6643 158.634 34.9461C158.634 35.3583 158.488 35.7019 158.198 35.9768C157.913 36.2516 157.537 36.3891 157.067 36.3891C156.763 36.3891 156.489 36.3341 156.244 36.2242C156 36.1073 155.792 35.9596 155.62 35.7809C155.455 35.6023 155.329 35.4202 155.243 35.2347L155.868 34.8327Z" fill="white"/>
<path d="M158.984 31.5447H161.265V32.3177H158.984V31.5447ZM159.728 29.8955H160.521V36.286H159.728V29.8955Z" fill="white"/>
<path d="M163.825 36.3891C163.402 36.3891 163.025 36.286 162.695 36.0799C162.371 35.8668 162.116 35.5748 161.931 35.2037C161.753 34.8327 161.663 34.4032 161.663 33.9153C161.663 33.4206 161.756 32.9877 161.941 32.6166C162.133 32.2456 162.397 31.957 162.734 31.7508C163.078 31.5447 163.475 31.4416 163.924 31.4416C164.374 31.4416 164.757 31.5412 165.074 31.7405C165.398 31.9329 165.646 32.2112 165.818 32.5754C165.99 32.9396 166.076 33.3725 166.076 33.8741C166.076 33.9222 166.072 33.9737 166.066 34.0287C166.066 34.0768 166.066 34.1077 166.066 34.1215H162.169V33.4206H165.441L165.124 33.8947C165.144 33.8604 165.163 33.8088 165.183 33.7401C165.203 33.6645 165.213 33.6027 165.213 33.5546C165.213 33.2728 165.157 33.0289 165.044 32.8228C164.939 32.6166 164.79 32.4551 164.598 32.3383C164.407 32.2215 164.182 32.1631 163.924 32.1631C163.62 32.1631 163.359 32.2318 163.141 32.3692C162.929 32.4998 162.764 32.6922 162.645 32.9465C162.533 33.1938 162.473 33.4996 162.467 33.8638C162.467 34.2349 162.523 34.5509 162.635 34.8121C162.747 35.0732 162.913 35.2724 163.131 35.4099C163.349 35.5473 163.613 35.616 163.924 35.616C164.235 35.616 164.509 35.5473 164.747 35.4099C164.985 35.2656 165.187 35.0491 165.352 34.7605L165.996 35.1831C165.758 35.5817 165.458 35.884 165.094 36.0902C164.737 36.2894 164.314 36.3891 163.825 36.3891Z" fill="white"/>
<path d="M173.409 33.2969V36.286H172.616V33.4C172.616 32.9946 172.543 32.6956 172.398 32.5032C172.259 32.3108 172.041 32.2146 171.743 32.2146C171.525 32.2146 171.337 32.2627 171.178 32.3589C171.02 32.4483 170.897 32.5823 170.811 32.7609C170.725 32.9396 170.682 33.1526 170.682 33.4V36.286H169.889V33.4C169.889 32.9946 169.817 32.6956 169.671 32.5032C169.532 32.3108 169.314 32.2146 169.017 32.2146C168.799 32.2146 168.61 32.2627 168.452 32.3589C168.293 32.4483 168.171 32.5823 168.085 32.7609C167.999 32.9396 167.956 33.1526 167.956 33.4V36.286H167.163V31.5447H167.956V32.2353C168.095 31.9673 168.267 31.768 168.471 31.6374C168.683 31.5069 168.931 31.4416 169.215 31.4416C169.532 31.4416 169.803 31.5206 170.028 31.6787C170.259 31.8298 170.428 32.0463 170.534 32.328C170.692 32.0325 170.891 31.8127 171.129 31.6684C171.367 31.5172 171.638 31.4416 171.942 31.4416C172.252 31.4416 172.517 31.5137 172.735 31.658C172.953 31.8023 173.118 32.0154 173.231 32.2971C173.35 32.572 173.409 32.9052 173.409 33.2969Z" fill="white"/>
<defs>
<linearGradient id="paint0_linear_9_5816" x1="9.4799" y1="64.6317" x2="76.8505" y2="-13.1771" gradientUnits="userSpaceOnUse">
<stop stop-color="#0F0C4E"/>
<stop offset="0.4" stop-color="#4D1995"/>
<stop offset="1" stop-color="#E24072"/>
</linearGradient>
<linearGradient id="paint1_linear_9_5816" x1="-9.3715" y1="59.0173" x2="45.4626" y2="-12.5096" gradientUnits="userSpaceOnUse">
<stop offset="0.16" stop-color="#14134F"/>
<stop offset="1" stop-color="#14134F"/>
</linearGradient>
<linearGradient id="paint2_linear_9_5816" x1="7.34681" y1="38.6" x2="26.2697" y2="13.1735" gradientUnits="userSpaceOnUse">
<stop stop-color="#0F0C4E"/>
<stop offset="0.4" stop-color="#4D1995"/>
<stop offset="1" stop-color="#E24072"/>
</linearGradient>
<linearGradient id="paint3_linear_9_5816" x1="-7.74628" y1="32.7366" x2="23.0204" y2="-7.39283" gradientUnits="userSpaceOnUse">
<stop offset="0.16" stop-color="#14134F"/>
<stop offset="1" stop-color="#14134F"/>
</linearGradient>
<linearGradient id="paint4_linear_9_5816" x1="1.63315" y1="21.281" x2="12.2505" y2="7.01567" gradientUnits="userSpaceOnUse">
<stop stop-color="#0F0C4E"/>
<stop offset="0.4" stop-color="#4D1995"/>
<stop offset="1" stop-color="#E24072"/>
</linearGradient>
<linearGradient id="paint5_linear_9_5816" x1="-7.72659" y1="45.1899" x2="15.6867" y2="14.6521" gradientUnits="userSpaceOnUse">
<stop offset="0.16" stop-color="#14134F"/>
<stop offset="1" stop-color="#14134F"/>
</linearGradient>
<linearGradient id="paint6_linear_9_5816" x1="-0.589057" y1="36.4723" x2="7.49071" y2="25.6166" gradientUnits="userSpaceOnUse">
<stop stop-color="#0F0C4E"/>
<stop offset="0.4" stop-color="#4D1995"/>
<stop offset="1" stop-color="#E24072"/>
</linearGradient>
</defs>
</svg>
